<svg id="Layer_1" data-name="Layer 1" xmlns="http://www.w3.org/2000/svg" viewBox="0 0 777.89 389.67"><g id="Group_438" data-name="Group 438"><path id="Path_13" data-name="Path 13" d="M195,35.44c2-11.57,3.77-22.29,5.93-32.92.22-1.08,2.91-2.36,4.46-2.37C229.18,0,253,0,276.79,0H589.51c1.22,0,2.44.16,4.23.29-1.41,8.16-2.75,16.06-4.16,23.94q-12.33,69.3-24.7,138.58c-6.12,34.26-12.34,68.5-18.3,102.79-.63,3.63-2,4.41-5.4,4.41q-66-.13-132.1,0H158c-1.22,0-2.44-.12-4.34-.22l3.61-23.27h-5.47c-18.67,0-37.34.07-56,0-6.45,0-11.51-4-12.65-9.62-1.46-7.27,4.32-13.83,12.52-13.87,22.71-.09,45.43-.06,68.15-.06h106.9c8,0,13.38-4.81,13.32-11.77s-5.35-11.46-13.57-11.47H166.86c2-11.87,4-23.13,6-35-2.11-.1-3.88-.25-5.64-.25H62.65a23.78,23.78,0,0,1-6.46-.56c-5.43-1.54-9.17-7.3-8.43-12.49a12.21,12.21,0,0,1,12-10.43c11.67-.14,23.34,0,35,0H320.2c6.72-.35,11.91-5.72,11.7-12.08a11.78,11.78,0,0,0-12.06-11.17q-39.9-.07-79.82,0H185.4c-1.36,0-2.72-.16-4.44-.27l6-35.22h-6.37L14,82.32c-8.35,0-14-4.63-14-11.66S5.48,58.78,13.82,58.78q103.62-.06,207.26,0h49.48c8,0,13.49-4.75,13.55-11.6s-5.32-11.7-13.38-11.7H201.62Z" transform="translate(-0.01 0)"/><path id="Path_14" data-name="Path 14" d="M755.89,293.67c8.75,3.44,10.23,5.94,8.8,15.06-1.09,6.91-2.25,13.81-3.62,20.66-1.58,7.88-7.22,12.46-15.07,12.52-6.85.06-13.69,0-20.54,0a8.76,8.76,0,0,1-1.59-.38,25.7,25.7,0,0,1,0-3.51c5.28-38.36-24.35-71.73-66.61-66.67-38.15,4.57-65.74,29.92-75.58,67.62-.79,3-2.49,3-4.76,3H526.05l-162.44-.06h-6.43c3-17.12.93-32.77-9.6-47.8h6.69q102.92,0,205.85.15c4.5,0,6.23-1,7-5.82,8.63-50.7,17.59-101.33,26.45-152Q600.27,98.1,607,59.77c1.73-9.72,7.27-14.26,17.08-14.26H731c8.54,0,10.54,1.52,13.13,9.54,10.92,34,22,67.73,32.57,101.69a33.36,33.36,0,0,1,.7,15c-6.77,39.19-13.92,78.32-20.94,117.46C756.17,290.61,756.09,292,755.89,293.67Zm-2.2-130.4c-.71-2.28-1.24-4-1.8-5.79-9.06-28.09-18.21-56.14-27.08-84.29-1.07-3.38-2.5-4.19-5.8-4.19-27.23.11-54.46.06-81.68.06h-8.57c-5.49,31.65-10.88,62.78-16.33,94.24Z" transform="translate(-0.01 0)"/><path id="Path_15" data-name="Path 15" d="M278.39,389.66c-26.59.64-45.31-23.16-39.25-49.89,5.22-23,25.29-41.6,48.67-45,29.09-4.31,51.33,18.94,45.71,47.8C328.38,368.89,304.85,389,278.39,389.66Zm-17.05-44.61c-.07,10.29,6.4,17.79,16.57,19.22,15.78,2.22,31.44-11,31.72-26.9a19,19,0,0,0-13.92-18.79c-16.34-4.29-34.27,9.51-34.37,26.47Z" transform="translate(-0.01 0)"/><path id="Path_16" data-name="Path 16" d="M700.41,334.79c-.5,31.44-30.62,58-61.93,54.58-22.64-2.45-38.05-24.74-33.24-48.06,5.13-24.88,26.47-44.32,51.62-47C681.17,291.68,700.81,310,700.41,334.79Zm-24.48,2.34a18.6,18.6,0,0,0-16.32-18.94c-15.77-2.35-31.42,10.53-32.07,26.4a19.31,19.31,0,0,0,14.83,19.47c16.28,3.55,33.5-10.25,33.56-26.92Z" transform="translate(-0.01 0)"/><path id="Path_17" data-name="Path 17" d="M240.34,295.05c-13.47,13.64-22.28,28.52-25.83,46.94h-59c-9.31,0-13.21-4.6-11.81-14q1.59-10.58,3.55-21.11c1.27-6.81,6.35-11.73,13.1-11.78C186.53,294.93,212.76,295.05,240.34,295.05Z" transform="translate(-0.01 0)"/></g></svg>