<svg id="Layer_1" data-name="Layer 1" xmlns="http://www.w3.org/2000/svg" viewBox="0 0 777.91 389.67"><g id="Group_438" data-name="Group 438"><path id="Path_13" data-name="Path 13" d="M195,35.44c2-11.57,3.77-22.29,5.93-32.92.22-1.08,2.91-2.36,4.46-2.37C229.17,0,253,0,276.78,0H484q52.76,0,105.5,0c1.22,0,2.44.16,4.23.29-1.41,8.16-2.75,16.06-4.16,23.94q-12.33,69.3-24.7,138.58c-6.12,34.26-12.34,68.5-18.3,102.79-.63,3.63-2,4.41-5.4,4.41q-66-.13-132.1,0H158c-1.22,0-2.44-.12-4.34-.22l3.61-23.27H151.8c-18.67,0-37.34.07-56,0-6.45,0-11.51-4-12.65-9.62-1.46-7.27,4.32-13.83,12.52-13.87,22.71-.09,45.43-.06,68.15-.06l106.9,0c8,0,13.38-4.81,13.32-11.77s-5.35-11.46-13.57-11.47q-49,0-98,0h-5.62c2.05-11.87,4-23.13,6-35-2.11-.1-3.88-.25-5.64-.25l-104.57,0a23.78,23.78,0,0,1-6.46-.56c-5.43-1.54-9.17-7.3-8.43-12.49a12.21,12.21,0,0,1,12-10.43c11.67-.14,23.34,0,35,0H317.39c.94,0,1.87,0,2.8,0,6.72-.35,11.91-5.72,11.7-12.08a11.78,11.78,0,0,0-12.06-11.17q-39.9-.07-79.82,0H185.39c-1.36,0-2.72-.16-4.44-.27L187,82.26h-6.37L14,82.32c-8.35,0-14-4.63-14-11.66S5.47,58.78,13.81,58.78q103.62-.06,207.26,0c16.49,0,33,0,49.48,0,8,0,13.49-4.75,13.55-11.6s-5.32-11.7-13.38-11.7q-34.56,0-69.11,0Z" transform="translate(0.01 0)" fill="#fff"/><path id="Path_14" data-name="Path 14" d="M755.88,293.67c8.75,3.44,10.23,5.94,8.8,15.06-1.09,6.91-2.25,13.81-3.62,20.66-1.58,7.88-7.22,12.46-15.07,12.52-6.85.06-13.69,0-20.54,0a8.76,8.76,0,0,1-1.59-.38,27.41,27.41,0,0,1,0-3.51c5.28-38.36-24.35-71.73-66.61-66.67-38.15,4.57-65.74,29.92-75.58,67.62-.79,3-2.49,3-4.76,3q-25.44,0-50.87,0l-162.44-.06h-6.43c3-17.12.93-32.77-9.6-47.8h6.69q102.92,0,205.85.15c4.5,0,6.23-1,7-5.82,8.63-50.7,17.59-101.33,26.45-152q6.71-38.34,13.42-76.67c1.73-9.72,7.27-14.26,17.08-14.26q53.45,0,106.89,0c8.54,0,10.54,1.52,13.13,9.54C755,89,766.07,122.78,776.65,156.74a33.38,33.38,0,0,1,.7,15c-6.77,39.19-13.92,78.32-20.94,117.46C756.16,290.61,756.08,292,755.88,293.67Zm-2.2-130.4c-.71-2.28-1.24-4-1.8-5.79-9.06-28.09-18.21-56.14-27.08-84.29C723.73,69.81,722.3,69,719,69c-27.23.11-54.46.06-81.68.06h-8.57c-5.49,31.65-10.88,62.78-16.33,94.24Z" transform="translate(0.01 0)" fill="#fff"/><path id="Path_15" data-name="Path 15" d="M278.38,389.66c-26.59.64-45.31-23.16-39.25-49.89,5.22-23,25.29-41.6,48.67-45,29.09-4.31,51.33,18.94,45.71,47.8C328.37,368.89,304.84,389,278.38,389.66Zm-17.05-44.61c-.07,10.29,6.4,17.79,16.57,19.22,15.78,2.22,31.44-11,31.72-26.9a19,19,0,0,0-13.92-18.79C279.36,314.29,261.43,328.09,261.33,345.05Z" transform="translate(0.01 0)" fill="#fff"/><path id="Path_16" data-name="Path 16" d="M700.4,334.79c-.5,31.44-30.62,58-61.93,54.58-22.64-2.45-38.05-24.74-33.24-48.06,5.13-24.88,26.47-44.32,51.62-47C681.16,291.68,700.8,310,700.4,334.79Zm-24.48,2.34a18.6,18.6,0,0,0-16.32-18.94c-15.77-2.35-31.42,10.53-32.07,26.4a19.31,19.31,0,0,0,14.83,19.47c16.28,3.55,33.5-10.25,33.56-26.92Z" transform="translate(0.01 0)" fill="#fff"/><path id="Path_17" data-name="Path 17" d="M240.33,295.05c-13.47,13.64-22.28,28.52-25.83,46.94H201.12c-15.22,0-30.44,0-45.67,0-9.31,0-13.21-4.6-11.81-14q1.59-10.57,3.55-21.11c1.27-6.81,6.35-11.73,13.1-11.78C186.52,294.93,212.75,295.05,240.33,295.05Z" transform="translate(0.01 0)" fill="#fff"/></g></svg>