<svg width="278" height="77" viewBox="0 0 278 77" fill="none" xmlns="http://www.w3.org/2000/svg">
<path d="M0 0.993547H15.4785L22.3797 50.7703H22.5769L29.4781 0.993547H44.9566V70.5419H34.7033V17.8839H34.5061L26.619 70.5419H17.5488L9.66172 17.8839H9.46454V70.5419H0V0.993547Z" fill="black"/>
<path d="M61.4294 0.993547H76.1191L87.3583 70.5419H76.5135L74.5417 56.7316V56.9303H62.2181L60.2463 70.5419H50.1902L61.4294 0.993547ZM73.26 47.4916L68.4292 13.1148H68.232L63.4997 47.4916H73.26Z" fill="black"/>
<path d="M92.6197 0.993547H108.69C114.276 0.993547 118.351 2.31828 120.915 4.96774C123.478 7.55097 124.76 11.5583 124.76 16.9897V21.2619C124.76 28.4817 122.394 33.052 117.661 34.9729V35.1716C120.29 35.9665 122.131 37.5892 123.182 40.04C124.3 42.4908 124.858 45.7695 124.858 49.8761V62.0968C124.858 64.0839 124.924 65.7067 125.055 66.9652C125.187 68.1574 125.516 69.3497 126.041 70.5419H114.999C114.605 69.4159 114.342 68.3561 114.211 67.3626C114.079 66.369 114.013 64.5806 114.013 61.9974V49.28C114.013 46.1006 113.488 43.8817 112.436 42.6232C111.45 41.3647 109.708 40.7355 107.211 40.7355H103.464V70.5419H92.6197V0.993547ZM107.408 30.8C109.577 30.8 111.187 30.237 112.239 29.111C113.356 27.9849 113.915 26.0972 113.915 23.4477V18.0826C113.915 15.5656 113.455 13.7441 112.535 12.6181C111.68 11.492 110.3 10.929 108.394 10.929H103.464V30.8H107.408Z" fill="black"/>
<path d="M164.325 77C159.396 77 156.373 74.7811 155.255 70.3432C153.218 71.1381 150.819 71.5355 148.058 71.5355C142.734 71.5355 138.659 70.012 135.833 66.9652C133.007 63.9183 131.594 59.6129 131.594 54.049V17.4865C131.594 11.9226 133.007 7.6172 135.833 4.57032C138.659 1.52344 142.734 0 148.058 0C153.382 0 157.457 1.52344 160.283 4.57032C163.109 7.6172 164.523 11.9226 164.523 17.4865V54.049C164.523 58.6856 163.504 62.4942 161.466 65.4748C161.861 66.1372 162.354 66.5677 162.945 66.7665C163.537 66.9652 164.391 67.0645 165.508 67.0645H167.184V77H164.325ZM148.058 61.6C151.805 61.6 153.678 59.3148 153.678 54.7445V16.791C153.678 12.2206 151.805 9.93549 148.058 9.93549C144.312 9.93549 142.439 12.2206 142.439 16.791V54.7445C142.439 59.3148 144.312 61.6 148.058 61.6Z" fill="black"/>
<path d="M187.631 71.5355C182.373 71.5355 178.364 70.0452 175.603 67.0645C172.843 64.0176 171.462 59.6791 171.462 54.049V0.993547H182.307V54.8439C182.307 57.2284 182.767 58.9505 183.687 60.0103C184.673 61.0701 186.053 61.6 187.828 61.6C189.603 61.6 190.95 61.0701 191.87 60.0103C192.856 58.9505 193.349 57.2284 193.349 54.8439V0.993547H203.8V54.049C203.8 59.6791 202.419 64.0176 199.659 67.0645C196.898 70.0452 192.889 71.5355 187.631 71.5355Z" fill="black"/>
<path d="M211.523 0.993547H241.1V10.929H222.368V29.3097H237.255V39.2452H222.368V60.6065H241.1V70.5419H211.523V0.993547Z" fill="black"/>
<path d="M255.817 10.929H244.48V0.993547H278V10.929H266.662V70.5419H255.817V10.929Z" fill="black"/>
</svg>
