<svg width="80" height="22" viewBox="0 0 80 22" fill="none" xmlns="http://www.w3.org/2000/svg">
<path d="M0.14801 0.399995H4.54401L6.50401 14.428H6.56001L8.52001 0.399995H12.916V20H10.004V5.16H9.94801L7.70801 20H5.13201L2.89201 5.16H2.83601V20H0.14801V0.399995Z" fill="#1E1E1E"/>
<path d="M17.5944 0.399995H21.7664L24.9584 20H21.8784L21.3184 16.108V16.164H17.8184L17.2584 20H14.4024L17.5944 0.399995ZM20.9544 13.504L19.5824 3.816H19.5264L18.1824 13.504H20.9544Z" fill="#1E1E1E"/>
<path d="M26.4527 0.399995H31.0167C32.6034 0.399995 33.7607 0.773328 34.4887 1.52C35.2167 2.24799 35.5807 3.37733 35.5807 4.908V6.112C35.5807 8.14666 34.9087 9.43466 33.5647 9.976V10.032C34.3114 10.256 34.834 10.7133 35.1327 11.404C35.45 12.0947 35.6087 13.0187 35.6087 14.176V17.62C35.6087 18.18 35.6274 18.6373 35.6647 18.992C35.702 19.328 35.7954 19.664 35.9447 20H32.8087C32.6967 19.6827 32.622 19.384 32.5847 19.104C32.5474 18.824 32.5287 18.32 32.5287 17.592V14.008C32.5287 13.112 32.3794 12.4867 32.0807 12.132C31.8007 11.7773 31.306 11.6 30.5967 11.6H29.5327V20H26.4527V0.399995ZM30.6527 8.8C31.2687 8.8 31.726 8.64133 32.0247 8.324C32.342 8.00666 32.5007 7.47466 32.5007 6.72799V5.216C32.5007 4.50666 32.37 3.99333 32.1087 3.676C31.866 3.35866 31.474 3.2 30.9327 3.2H29.5327V8.8H30.6527Z" fill="#1E1E1E"/>
<path d="M46.8177 21.82C45.4177 21.82 44.559 21.1947 44.2417 19.944C43.663 20.168 42.9817 20.28 42.1977 20.28C40.6857 20.28 39.5283 19.8507 38.7257 18.992C37.923 18.1333 37.5217 16.92 37.5217 15.352V5.048C37.5217 3.48 37.923 2.26666 38.7257 1.408C39.5283 0.549329 40.6857 0.119995 42.1977 0.119995C43.7097 0.119995 44.867 0.549329 45.6697 1.408C46.4723 2.26666 46.8737 3.48 46.8737 5.048V15.352C46.8737 16.6587 46.5843 17.732 46.0057 18.572C46.1177 18.7587 46.2577 18.88 46.4257 18.936C46.5937 18.992 46.8363 19.02 47.1537 19.02H47.6297V21.82H46.8177ZM42.1977 17.48C43.2617 17.48 43.7937 16.836 43.7937 15.548V4.852C43.7937 3.564 43.2617 2.92 42.1977 2.92C41.1337 2.92 40.6017 3.564 40.6017 4.852V15.548C40.6017 16.836 41.1337 17.48 42.1977 17.48Z" fill="#1E1E1E"/>
<path d="M53.4366 20.28C51.9433 20.28 50.8046 19.86 50.0206 19.02C49.2366 18.1613 48.8446 16.9387 48.8446 15.352V0.399995H51.9246V15.576C51.9246 16.248 52.0553 16.7333 52.3166 17.032C52.5966 17.3307 52.9886 17.48 53.4926 17.48C53.9966 17.48 54.3793 17.3307 54.6406 17.032C54.9206 16.7333 55.0606 16.248 55.0606 15.576V0.399995H58.0286V15.352C58.0286 16.9387 57.6366 18.1613 56.8526 19.02C56.0686 19.86 54.9299 20.28 53.4366 20.28Z" fill="#1E1E1E"/>
<path d="M60.2222 0.399995H68.6222V3.2H63.3022V8.38H67.5302V11.18H63.3022V17.2H68.6222V20H60.2222V0.399995Z" fill="#1E1E1E"/>
<path d="M72.8021 3.2H69.5821V0.399995H79.1021V3.2H75.8821V20H72.8021V3.2Z" fill="#1E1E1E"/>
</svg>
