<svg width="269" height="65" viewBox="0 0 269 65" fill="none" xmlns="http://www.w3.org/2000/svg">
<mask id="path-1-inside-1_238_260" fill="white">
<path fill-rule="evenodd" clip-rule="evenodd" d="M249 7C249 13.707 248.9 14 246.619 14C244.636 14 244.05 14.743 243.119 18.443C241.644 24.299 241.523 24 245.361 24H248.723L249.226 32.832C249.503 37.689 250.353 42.954 251.115 44.531C252.739 47.893 256.995 50.573 262.234 51.533C265.684 52.165 266.051 52 267.071 49.358C267.679 47.786 268.42 45.038 268.719 43.25C269.246 40.095 269.158 40 265.738 40C261.482 40 261 39.025 261 30.418C261 24.705 261.216 24 262.965 24C265.153 24 266.421 22.097 267.461 17.25C268.146 14.059 268.094 14 264.579 14H261V7V0H255H249V7ZM11.479 12.908C2.229 15.192 0 20.068 0 38.02V51H5.382H10.764L11.17 37.94C11.602 24.103 11.993 23.048 16.715 23.015C20.194 22.991 21 25.985 21 38.934V51H26.5H32V39.565C32 25.626 32.793 23 37 23C41.207 23 42 25.626 42 39.565V51H47.5H53L52.998 37.25C52.997 21.615 51.889 17.947 46.169 14.645C42.216 12.362 33.88 11.979 29.316 13.869C27.181 14.753 25.594 14.859 24.341 14.2C21.562 12.739 14.88 12.068 11.479 12.908ZM68.53 13.594C63.711 15.358 59.468 19.235 56.908 24.21C52.401 32.973 56.517 44.126 66.064 49.023C69.011 50.534 72 50.848 83.314 50.834L97 50.816V39.376C97 26.479 96.054 23.226 90.866 18.293C84.784 12.51 76.343 10.734 68.53 13.594ZM110.275 12.953C100.861 15.242 99 19.288 99 37.468V51H104.5H110V39.565C110 25.601 110.789 23 115.028 23H118.105L117.802 17.75C117.469 11.955 116.616 11.412 110.275 12.953ZM133.748 13.427C131.684 14.163 128.485 15.918 126.639 17.326C116.121 25.348 118.263 43.076 130.464 48.982C134.433 50.904 136.289 51.18 142.536 50.779L149.919 50.306L150.209 57.403L150.5 64.5H156H161.5L161.468 46C161.437 28.813 161.276 27.198 159.198 23.251C156.581 18.282 151.324 14.514 145 13.074C139.273 11.77 138.307 11.8 133.748 13.427ZM212.018 14.077C206.39 16.63 204.281 18.532 201.894 23.21C197.577 31.667 200.74 42.949 208.894 48.184C213.076 50.869 214.15 51.111 220.559 50.811C225.183 50.594 228.557 49.865 230.34 48.697L233.062 46.913L229.891 42.498C226.919 38.359 226.59 38.174 224.638 39.541C221.324 41.862 216.633 41.36 213.636 38.364C208.673 33.4 209.567 33 225.632 33H240.263L239.717 28.927C238.931 23.066 234.681 17.518 228.691 14.533C222.574 11.485 218.007 11.36 212.018 14.077ZM166.004 27.75C166.008 43.571 167.194 46.929 173.74 49.665C178.702 51.738 188.085 51.061 191.763 48.364C196.905 44.595 197.997 40.809 197.998 26.75L198 14H192H186V26.3C186 39.323 185.468 41 181.335 41C177.825 41 177 38.064 177 25.566V14H171.5H166L166.004 27.75ZM81.46 24.566C84.706 26.693 86.182 31.178 84.873 34.934C81.506 44.592 67 42.211 67 32C67 24.54 75.081 20.386 81.46 24.566ZM147.077 25.923C149.072 27.918 150 29.848 150 32C150 36.562 145.316 41 140.5 41C135.684 41 131 36.562 131 32C131 27.438 135.684 23 140.5 23C143.205 23 144.913 23.759 147.077 25.923ZM224.559 24.468C226.327 25.805 225.88 25.939 219.559 25.968C213.244 25.997 212.793 25.867 214.559 24.532C217.071 22.632 222.088 22.6 224.559 24.468Z"/>
</mask>
<path fill-rule="evenodd" clip-rule="evenodd" d="M249 7C249 13.707 248.9 14 246.619 14C244.636 14 244.05 14.743 243.119 18.443C241.644 24.299 241.523 24 245.361 24H248.723L249.226 32.832C249.503 37.689 250.353 42.954 251.115 44.531C252.739 47.893 256.995 50.573 262.234 51.533C265.684 52.165 266.051 52 267.071 49.358C267.679 47.786 268.42 45.038 268.719 43.25C269.246 40.095 269.158 40 265.738 40C261.482 40 261 39.025 261 30.418C261 24.705 261.216 24 262.965 24C265.153 24 266.421 22.097 267.461 17.25C268.146 14.059 268.094 14 264.579 14H261V7V0H255H249V7ZM11.479 12.908C2.229 15.192 0 20.068 0 38.02V51H5.382H10.764L11.17 37.94C11.602 24.103 11.993 23.048 16.715 23.015C20.194 22.991 21 25.985 21 38.934V51H26.5H32V39.565C32 25.626 32.793 23 37 23C41.207 23 42 25.626 42 39.565V51H47.5H53L52.998 37.25C52.997 21.615 51.889 17.947 46.169 14.645C42.216 12.362 33.88 11.979 29.316 13.869C27.181 14.753 25.594 14.859 24.341 14.2C21.562 12.739 14.88 12.068 11.479 12.908ZM68.53 13.594C63.711 15.358 59.468 19.235 56.908 24.21C52.401 32.973 56.517 44.126 66.064 49.023C69.011 50.534 72 50.848 83.314 50.834L97 50.816V39.376C97 26.479 96.054 23.226 90.866 18.293C84.784 12.51 76.343 10.734 68.53 13.594ZM110.275 12.953C100.861 15.242 99 19.288 99 37.468V51H104.5H110V39.565C110 25.601 110.789 23 115.028 23H118.105L117.802 17.75C117.469 11.955 116.616 11.412 110.275 12.953ZM133.748 13.427C131.684 14.163 128.485 15.918 126.639 17.326C116.121 25.348 118.263 43.076 130.464 48.982C134.433 50.904 136.289 51.18 142.536 50.779L149.919 50.306L150.209 57.403L150.5 64.5H156H161.5L161.468 46C161.437 28.813 161.276 27.198 159.198 23.251C156.581 18.282 151.324 14.514 145 13.074C139.273 11.77 138.307 11.8 133.748 13.427ZM212.018 14.077C206.39 16.63 204.281 18.532 201.894 23.21C197.577 31.667 200.74 42.949 208.894 48.184C213.076 50.869 214.15 51.111 220.559 50.811C225.183 50.594 228.557 49.865 230.34 48.697L233.062 46.913L229.891 42.498C226.919 38.359 226.59 38.174 224.638 39.541C221.324 41.862 216.633 41.36 213.636 38.364C208.673 33.4 209.567 33 225.632 33H240.263L239.717 28.927C238.931 23.066 234.681 17.518 228.691 14.533C222.574 11.485 218.007 11.36 212.018 14.077ZM166.004 27.75C166.008 43.571 167.194 46.929 173.74 49.665C178.702 51.738 188.085 51.061 191.763 48.364C196.905 44.595 197.997 40.809 197.998 26.75L198 14H192H186V26.3C186 39.323 185.468 41 181.335 41C177.825 41 177 38.064 177 25.566V14H171.5H166L166.004 27.75ZM81.46 24.566C84.706 26.693 86.182 31.178 84.873 34.934C81.506 44.592 67 42.211 67 32C67 24.54 75.081 20.386 81.46 24.566ZM147.077 25.923C149.072 27.918 150 29.848 150 32C150 36.562 145.316 41 140.5 41C135.684 41 131 36.562 131 32C131 27.438 135.684 23 140.5 23C143.205 23 144.913 23.759 147.077 25.923ZM224.559 24.468C226.327 25.805 225.88 25.939 219.559 25.968C213.244 25.997 212.793 25.867 214.559 24.532C217.071 22.632 222.088 22.6 224.559 24.468Z" fill="white" stroke="#1E1E1E" stroke-width="2" mask="url(#path-1-inside-1_238_260)"/>
</svg>
