<svg width="292" height="62" viewBox="0 0 292 62" fill="none" xmlns="http://www.w3.org/2000/svg">
<path fill-rule="evenodd" clip-rule="evenodd" d="M151.616 1.06492C144.243 2.88592 137.141 9.51492 134.479 17.0609C131.346 25.9389 133.265 34.2059 140.104 41.3019L144.746 46.1179L140.873 47.6679C136.552 49.3969 136.369 49.8779 138.48 53.9609C142.168 61.0939 148.68 63.1839 157.525 60.0759C164.999 57.4489 167.684 57.4299 168.5 59.9999C168.849 61.0999 169.712 61.9999 170.418 61.9999C173.325 61.9999 178 59.6999 178 58.2699C178 55.8109 174.287 50.4919 171.547 49.0249L169.026 47.6759L174.059 42.8499C180.225 36.9379 182 32.9139 182 24.8479C182 15.1059 176.818 7.05092 167.423 2.18992C164.298 0.572921 156 -0.0180793 151.616 1.06492ZM0 25.4409V48.9999H6H12V38.4999C12 32.7249 12.359 27.9999 12.797 27.9999C13.235 27.9999 15.355 29.8029 17.506 32.0059L21.418 36.0129L26.209 31.2939L31 26.5749V37.8349V49.0949L37.25 48.7979L43.5 48.4999L43.768 25.2499C43.916 12.4619 43.75 1.99992 43.399 1.99992C43.049 1.99992 38.514 5.48692 33.322 9.74992C28.13 14.0129 23.281 17.9169 22.547 18.4279C21.584 19.0969 18.608 17.1279 11.856 11.3539C6.71 6.95292 1.938 3.02092 1.25 2.61692C0.265 2.03792 0 6.86792 0 25.4409ZM58.25 24.8469C51.513 37.3899 46 47.9559 46 48.3259C46 48.6969 48.462 48.9999 51.47 48.9999C56.803 48.9999 56.998 48.8999 59.22 45.0079L61.5 41.0149L71.23 41.0079L80.959 40.9999L83 44.9999L85.041 48.9999H91.116H97.191L94.254 43.7499C92.639 40.8619 86.875 30.2879 81.445 20.2499C76.015 10.2119 71.331 2.00892 71.036 2.02092C70.741 2.03192 64.987 12.3039 58.25 24.8469ZM98.232 25.2499L98.5 48.4999L104.25 48.7999L110 49.0999L110.052 38.2999L110.103 27.4999L115.56 38.2499L121.018 48.9999H127.509C131.079 48.9999 133.986 48.6629 133.97 48.2499C133.953 47.8369 131.49 43.2319 128.497 38.0159L123.054 28.5319L125.433 26.5159C128.806 23.6569 130 20.8029 130 15.6009C130 11.9649 129.391 10.3759 126.918 7.55892C123.055 3.15992 118.988 2.01292 107.232 2.00592L97.963 1.99992L98.232 25.2499ZM186.002 19.7499C186.003 34.6529 186.284 38.0579 187.752 40.9799C193.776 52.9699 216.142 52.2959 222.536 39.9309C223.658 37.7599 224 33.0019 224 19.5499V1.99992H218.586H213.172L212.836 18.3969C212.451 37.2089 211.769 38.9999 205 38.9999C198.283 38.9999 197.616 37.2499 197.162 18.4269L196.765 1.99992H191.383H186L186.002 19.7499ZM226 25.4999V48.9999H241H256V43.9999V38.9999H247H238V34.4999V29.9999H243.5C249.521 29.9999 249.638 29.8359 247.947 23.7499C246.943 20.1339 246.747 19.9999 242.453 19.9999H238V15.9999V11.9999H247H256V6.99992V1.99992H241H226V25.4999ZM258.297 4.72392C259.71 11.7589 260.708 12.9999 264.952 12.9999H268.954L269.227 30.7499L269.5 48.4999L275.25 48.7999L281 49.0999V31.0499V12.9999H285.833C288.492 12.9999 290.914 12.7519 291.217 12.4499C291.52 12.1469 291.228 9.78492 290.569 7.19992L289.371 2.49992L273.556 2.22392L257.74 1.94792L258.297 4.72392ZM163.759 12.9949C167.681 15.3859 170.991 20.5039 170.996 24.1849C171.01 34.2179 161.906 40.9469 153.089 37.4189C142.922 33.3509 142.087 19.1969 151.641 12.8979C155.331 10.4649 159.668 10.4999 163.759 12.9949ZM117 13.9999C118.1 15.0999 119 16.9199 119 18.0449C119 20.6849 114.685 24.9999 112.045 24.9999C110.195 24.9999 110 24.3809 110 18.4999C110 12.2329 110.09 11.9999 112.5 11.9999C113.875 11.9999 115.9 12.8999 117 13.9999ZM74.958 31.2499C74.981 31.6629 73.2 31.9999 71 31.9999C68.8 31.9999 67.002 31.6629 67.004 31.2499C67.006 30.8369 67.957 28.9419 69.118 27.0379L71.229 23.5749L73.073 27.0379C74.087 28.9419 74.935 30.8369 74.958 31.2499ZM151 48.3779L155.5 49.7259L152.209 50.4519C149.006 51.1579 146 49.9109 146 47.8779C146 46.8009 145.602 46.7609 151 48.3779Z" fill="#1C1C1C"/>
</svg>
