<svg id="Layer_1" data-name="Layer 1" xmlns="http://www.w3.org/2000/svg" viewBox="0 0 1554.95 1051.72"><path d="M1038.57,196.85c-3.23-13.32-6.18-26.73-9.76-40-9.95-36.77-25-71.46-43.26-104.85A538.58,538.58,0,0,0,920.91-41,570.61,570.61,0,0,0,838-119.55c-59.11-46-124.68-80-195-105.19a872.52,872.52,0,0,0-153.59-40.08c-32.9-5.39-66-9.89-99.1-13.72-21.46-2.48-43.12-3.39-64.71-4.35-23.46-1-46.95-1.32-70.42-1.92-1.32,0-2.65,0-4.72,0v173.33c0,17.44-10.9,30.84-28.08,34.15a21.36,21.36,0,0,1-18.66-4.93q-24.66-21.45-49.13-43.12-36.88-32.49-73.74-65Q44.24-222.8,7.61-255.23-28-286.59-63.57-317.9-96.31-346.79-129-375.75c-23.7-20.92-47.25-42-71.2-62.64-17-14.61-17.87-40.76-1.1-55.58Q-143.51-545-85.56-595.9C-55.74-622.21-26-648.66,3.78-675q49.22-43.41,98.54-86.7,36.13-31.86,72.12-63.87c9-8,17.89-15.94,26.94-23.79,9.48-8.24,27-7.12,37.7,2.13a31.62,31.62,0,0,1,11.5,25.31c-.15,55.62-.07,111.24-.07,166.86v6.28c1.72.12,3.15.25,4.59.31,30.09,1.38,60.28,1.73,90.26,4.33,68.15,5.92,134.75,19.66,199.26,42.76C612.15-577.17,674.49-543.48,731-499.21a672.19,672.19,0,0,1,106.1,104.5C882-339.6,917.78-279,946.8-214.18A1006.77,1006.77,0,0,1,1012-13.48c7.12,33.17,12.74,66.72,17.31,100.34,4,29.58,5.59,59.48,8.29,89.23a41.73,41.73,0,0,0,1,4.78Z" transform="translate(516.38 854.87)" fill="#fff"/><path d="M-52.52-768.71c0,18.48.11,37-.14,55.45a10.92,10.92,0,0,1-3.06,7.15q-62.76,57.54-125.77,114.76c-20.43,18.59-41.07,37-61.34,55.73-17,15.74-28.89,34.7-32.33,57.93-2.95,20,2.19,38.43,12.49,55.69,7.8,13.09,18.69,23.28,29.78,33.36q32.31,29.4,64.66,58.77,36.57,33.24,73.11,66.52c13.29,12.1,26.62,24.16,39.75,36.44a9.66,9.66,0,0,1,2.73,6.33q.24,55.94.08,111.88c-.06,19.37-20.6,35.63-38.64,30.57A26.45,26.45,0,0,1-101-83.69c-24.91-21.8-49.63-43.82-74.46-65.73q-40.41-35.65-80.9-71.23-36.68-32.37-73.27-64.82-44-38.79-88-77.52c-27.69-24.43-55.09-49.21-83.15-73.22-10.11-8.66-16-18.51-15.51-31.72.34-9.95,3.61-18.75,11.4-25.57q41.1-36,82.08-72.17,35.92-31.71,71.75-63.52,41-36.15,82.05-72.2,35.56-31.36,71-62.82,37-32.71,74.09-65.4c6.49-5.72,13.58-10.89,19.37-17.24,10.53-11.53,30.68-9.44,41.14.11,7.44,6.79,11.14,14.9,11,25.09C-52.71-804-52.52-786.36-52.52-768.71Z" transform="translate(516.38 854.87)" fill="#fff"/></svg>