<svg xmlns="http://www.w3.org/2000/svg" width="46" height="46" viewBox="0 0 46 46">
  <path id="Icon_awesome-phone" data-name="Icon awesome-phone" d="M44.329,2.21,34.985.054A2.17,2.17,0,0,0,32.514,1.3L28.2,11.365a2.151,2.151,0,0,0,.62,2.516l5.444,4.456a33.3,33.3,0,0,1-15.92,15.92L13.89,28.813a2.154,2.154,0,0,0-2.516-.62L1.312,32.505a2.182,2.182,0,0,0-1.258,2.48L2.21,44.329A2.156,2.156,0,0,0,4.313,46,41.682,41.682,0,0,0,46,4.313,2.154,2.154,0,0,0,44.329,2.21Z" transform="translate(0.001 0.001)" fill="#fff"/>
</svg>
