<svg width="800" height="454" viewBox="0 0 800 454" fill="none" xmlns="http://www.w3.org/2000/svg">
<path d="M41.0256 0H758.974C781.633 0 800 16.2614 800 36.32V417.68C800 437.74 781.633 454 758.974 454H41.0256C18.3682 454 0 437.74 0 417.68V36.32C0 16.2614 18.3682 0 41.0256 0Z" fill="#0E4595"/>
<path d="M306.906 316.9L338.741 138.644H389.66L357.803 316.9H306.906ZM541.759 142.487C531.672 138.875 515.863 135 496.124 135C445.811 135 410.37 159.176 410.069 193.826C409.784 219.441 435.37 233.73 454.683 242.257C474.503 250.994 481.165 256.566 481.072 264.369C480.947 276.316 465.244 281.775 450.61 281.775C430.23 281.775 419.403 279.074 402.68 272.418L396.119 269.586L388.972 309.491C400.865 314.466 422.858 318.777 445.692 319C499.216 319 533.96 295.101 534.357 258.098C534.547 237.82 520.982 222.389 491.606 209.666C473.809 201.421 462.909 195.917 463.025 187.568C463.025 180.159 472.25 172.235 492.184 172.235C508.835 171.989 520.898 175.454 530.295 179.064L534.857 181.122L541.759 142.487ZM672.788 138.641H633.442C621.253 138.641 612.131 141.817 606.779 153.424L531.16 316.783H584.628C584.628 316.783 593.369 294.817 595.346 289.995C601.191 289.995 653.131 290.072 660.558 290.072C662.081 296.312 666.751 316.783 666.751 316.783H714L672.788 138.636V138.641ZM610.362 253.748C614.572 243.478 630.649 203.919 630.649 203.919C630.348 204.394 634.828 193.598 637.4 186.905L640.84 202.275C640.84 202.275 650.592 244.826 652.629 253.748H610.362ZM263.68 138.641L213.83 260.204L208.518 235.5C199.238 207.024 170.324 176.171 138 160.725L183.581 316.617L237.455 316.559L317.616 138.64H263.68" fill="white"/>
<path d="M167.962 139.004H85.6515L85 142.714C149.036 157.474 191.407 193.144 209 236L191.101 154.055C188.011 142.764 179.05 139.394 167.964 139" fill="#F2AE14"/>
</svg>
