<svg width="79" height="22" viewBox="0 0 79 22" fill="none" xmlns="http://www.w3.org/2000/svg">
<path d="M0 0.28H4.396L6.356 14.308H6.412L8.372 0.28H12.768V19.88H9.856V5.04H9.8L7.56 19.88H4.984L2.744 5.04H2.688V19.88H0V0.28Z" fill="#1E1E1E"/>
<path d="M17.4464 0.28H21.6184L24.8104 19.88H21.7304L21.1704 15.988V16.044H17.6704L17.1104 19.88H14.2544L17.4464 0.28ZM20.8064 13.384L19.4344 3.696H19.3784L18.0344 13.384H20.8064Z" fill="#1E1E1E"/>
<path d="M26.3047 0.28H30.8687C32.4554 0.28 33.6127 0.653333 34.3407 1.4C35.0687 2.128 35.4327 3.25733 35.4327 4.788V5.992C35.4327 8.02667 34.7607 9.31467 33.4167 9.856V9.912C34.1634 10.136 34.686 10.5933 34.9847 11.284C35.302 11.9747 35.4607 12.8987 35.4607 14.056V17.5C35.4607 18.06 35.4794 18.5173 35.5167 18.872C35.554 19.208 35.6474 19.544 35.7967 19.88H32.6607C32.5487 19.5627 32.474 19.264 32.4367 18.984C32.3994 18.704 32.3807 18.2 32.3807 17.472V13.888C32.3807 12.992 32.2314 12.3667 31.9327 12.012C31.6527 11.6573 31.158 11.48 30.4487 11.48H29.3847V19.88H26.3047V0.28ZM30.5047 8.68C31.1207 8.68 31.578 8.52133 31.8767 8.204C32.194 7.88667 32.3527 7.35467 32.3527 6.608V5.096C32.3527 4.38667 32.222 3.87333 31.9607 3.556C31.718 3.23867 31.326 3.08 30.7847 3.08H29.3847V8.68H30.5047Z" fill="#1E1E1E"/>
<path d="M46.6697 21.7C45.2697 21.7 44.411 21.0747 44.0937 19.824C43.515 20.048 42.8337 20.16 42.0497 20.16C40.5377 20.16 39.3803 19.7307 38.5777 18.872C37.775 18.0133 37.3737 16.8 37.3737 15.232V4.928C37.3737 3.36 37.775 2.14667 38.5777 1.288C39.3803 0.429333 40.5377 0 42.0497 0C43.5617 0 44.719 0.429333 45.5217 1.288C46.3243 2.14667 46.7257 3.36 46.7257 4.928V15.232C46.7257 16.5387 46.4363 17.612 45.8577 18.452C45.9697 18.6387 46.1097 18.76 46.2777 18.816C46.4457 18.872 46.6883 18.9 47.0057 18.9H47.4817V21.7H46.6697ZM42.0497 17.36C43.1137 17.36 43.6457 16.716 43.6457 15.428V4.732C43.6457 3.444 43.1137 2.8 42.0497 2.8C40.9857 2.8 40.4537 3.444 40.4537 4.732V15.428C40.4537 16.716 40.9857 17.36 42.0497 17.36Z" fill="#1E1E1E"/>
<path d="M53.2886 20.16C51.7953 20.16 50.6566 19.74 49.8726 18.9C49.0886 18.0413 48.6966 16.8187 48.6966 15.232V0.28H51.7766V15.456C51.7766 16.128 51.9073 16.6133 52.1686 16.912C52.4486 17.2107 52.8406 17.36 53.3446 17.36C53.8486 17.36 54.2313 17.2107 54.4926 16.912C54.7726 16.6133 54.9126 16.128 54.9126 15.456V0.28H57.8806V15.232C57.8806 16.8187 57.4886 18.0413 56.7046 18.9C55.9206 19.74 54.7819 20.16 53.2886 20.16Z" fill="#1E1E1E"/>
<path d="M60.0742 0.28H68.4742V3.08H63.1542V8.26H67.3822V11.06H63.1542V17.08H68.4742V19.88H60.0742V0.28Z" fill="#1E1E1E"/>
<path d="M72.6541 3.08H69.4341V0.28H78.9541V3.08H75.7341V19.88H72.6541V3.08Z" fill="#1E1E1E"/>
</svg>
