<svg width="1000" height="202" viewBox="0 0 1000 202" fill="none" xmlns="http://www.w3.org/2000/svg">
<path fill-rule="evenodd" clip-rule="evenodd" d="M426.245 99.25L426.5 198.5L446.25 198.771L466 199.042V190.428V181.815L471.235 186.521C482.773 196.895 494.846 201.463 510.5 201.38C526.063 201.297 537.989 197.465 550.526 188.519C570.494 174.27 580.078 144.389 574.05 115.175C568.615 88.836 550.643 68.626 527.269 62.57C520.189 60.735 504.481 60.5 496.799 62.113C488.731 63.807 477.723 69.277 473.121 73.879L469 78V39V0H447.495H425.99L426.245 99.25ZM0 99.943V199H48.369C99.717 199 106.388 198.531 121 193.892C146.815 185.696 160.929 167.717 160.985 142.96C161.034 121.4 148.398 104.756 126.128 97.044L118.088 94.26L125.294 90.695C142.678 82.095 151.016 68.774 150.988 49.645C150.953 25.624 138.583 11.26 111.5 3.793C103.818 1.674 101.445 1.573 51.75 1.236L0 0.885002V99.943ZM90.386 39.416C109.484 45.163 111.627 67.23 94 76.633C90.937 78.267 87.657 78.54 67.75 78.818L45 79.135V58.568V38H65.341C80.002 38 86.996 38.395 90.386 39.416ZM222.5 62.473C208.174 65.119 192.656 71.939 184.723 79.075L180.5 82.874L191.665 94.097L202.83 105.319L207.665 101.055C216.535 93.234 225.448 89.881 237.498 89.834C248.923 89.789 257.621 94.52 262.092 103.21C263.141 105.251 264 108.288 264 109.96V113H252.051C229.529 113 206.535 117.439 193.527 124.299C185.002 128.794 177.842 136.208 174.953 143.531C172.999 148.482 172.59 151.379 172.549 160.521C172.502 171.007 172.659 171.866 175.787 178.218C182.824 192.513 197.501 200.674 218 201.69C235.582 202.562 249.225 197.905 259.661 187.47L265 182.13V190.587V199.043L284.25 198.772L303.5 198.5V153C303.5 108.211 303.463 107.371 301.145 99.267C293.532 72.652 275.176 60.845 241.792 61.09C235.031 61.14 226.35 61.762 222.5 62.473ZM389.909 62.896C381.788 65.495 375.495 70.278 369.648 78.297L364.5 85.359L364.216 74.679L363.932 64H342.966H322V131.52V199.04L343.25 198.77L364.5 198.5L365.013 160C365.505 123.051 365.616 121.275 367.771 115.921C370.507 109.121 375.715 102.838 380.495 100.57C385.936 97.987 394.895 96.875 402.13 97.882C405.633 98.37 408.682 98.602 408.905 98.396C409.721 97.645 415.068 63.621 414.574 62.331C413.784 60.272 396.901 60.659 389.909 62.896ZM644.5 62.601C623.134 67.348 604.694 80.777 596.064 97.873C590.226 109.438 588.493 117.214 588.57 131.5C588.63 142.758 588.994 145.572 591.284 152.5C597.509 171.328 608.962 184.399 627.364 193.679C645.704 202.927 671.54 204.459 691.97 197.51C716.272 189.244 732.078 172.786 738.611 148.942C741.021 140.145 741.019 121.864 738.607 113C732.04 88.869 714.292 71.331 688.973 63.953C678.932 61.027 654.877 60.296 644.5 62.601ZM976.937 62.366C966.906 65.07 960.386 70.187 951.282 82.5L949.063 85.5L949.032 74.75L949 64H928H907V131.5V199H928.447H949.893L950.197 159.75L950.5 120.5L953.101 114.954C956.697 107.287 961.07 102.646 967.171 100.022C971.713 98.068 973.697 97.837 983.151 98.16L993.944 98.53L994.453 96.015C994.733 94.632 996.117 86.565 997.528 78.088C999.594 65.678 999.841 62.516 998.797 61.853C996.849 60.618 982.14 60.963 976.937 62.366ZM754.271 111.25C754.629 152.54 754.907 159.38 756.475 165.48C762.553 189.133 774.823 199.604 798.807 201.604C817.05 203.126 833.352 196.668 843.245 184L845.978 180.5L845.989 189.75L846 199H866.5H887V131.5V64H865.041H843.082L842.791 106.25C842.507 147.534 842.45 148.594 840.309 152.595C835.827 160.97 828.717 165.006 818.5 164.972C809.683 164.944 802.938 160.558 799.298 152.486C797.676 148.889 797.471 144.372 797.2 106.25L796.9 64H775.38H753.861L754.271 111.25ZM515.962 101.246C527.853 107.233 533.627 118.247 532.787 133.338C532.214 143.631 529.35 150.501 523.312 156.066C516.145 162.673 511.141 164.461 500 164.396C484.293 164.304 475.369 159.216 469.614 147.072C466.808 141.151 466.5 139.559 466.5 131C466.5 122.861 466.871 120.712 469.09 116C472.566 108.62 475.843 104.948 481.89 101.656C492.344 95.967 505.171 95.812 515.962 101.246ZM671.546 98.093C682.239 100.07 689.07 104.952 694.086 114.204C697.362 120.246 697.499 120.924 697.475 131C697.445 143.466 695.403 149.232 688.692 155.801C681.889 162.46 676.288 164.463 664.5 164.451C652.388 164.438 646.246 162.161 639.974 155.356C633.335 148.154 631.635 143.232 631.563 131C631.506 121.464 631.756 119.978 634.29 114.818C638.512 106.22 646.775 99.934 656.344 98.041C662.334 96.856 664.903 96.865 671.546 98.093ZM100 119.566C120.241 126.533 120.975 151.328 101.172 159.157C95.941 161.226 93.539 161.43 70.25 161.788L45 162.177V139.487V116.798L69.75 117.235C90.656 117.605 95.354 117.967 100 119.566ZM264.271 147.392C263.872 159.363 259.216 165.664 247.08 170.657C240.975 173.168 230.37 173.786 223.956 172.004C218.314 170.437 213.798 165.055 213.303 159.307C212.558 150.665 218.992 144.754 232 142.129C235.025 141.519 238.4 140.836 239.5 140.611C240.6 140.386 246.675 140.269 253 140.351L264.5 140.5L264.271 147.392ZM974.942 175.973C968.114 177.979 964.997 181.971 965.004 188.7C965.011 195.731 971.168 202 978.067 202C981.667 202 987.138 198.82 989.114 195.58C995.046 185.853 985.633 172.832 974.942 175.973ZM985.25 182.088C989.665 186.814 988.605 194.03 983.01 197.335C979.516 199.399 976.755 199.442 972.98 197.49C963.242 192.454 968.722 176.563 979.5 178.582C981.15 178.891 983.737 180.469 985.25 182.088ZM972 188.57C972 195.848 972.086 196.127 974.25 195.816C975.911 195.578 976.438 194.905 976.262 193.247C975.955 190.352 977.242 190.354 978.513 193.25C979.056 194.488 980.513 195.644 981.75 195.82C984.224 196.171 984.578 194.949 982.907 191.827C982.117 190.35 982.117 189.483 982.907 188.693C984.651 186.949 984.173 183.163 982.066 182.035C981.002 181.466 978.302 181 976.066 181H972V188.57ZM979 185.5C979 186.325 978.55 187 978 187C977.45 187 977 186.325 977 185.5C977 184.675 977.45 184 978 184C978.55 184 979 184.675 979 185.5Z" fill="black"/>
</svg>
