<svg width="992" height="640" viewBox="0 0 992 640" fill="none" xmlns="http://www.w3.org/2000/svg">
<path fillRule="evenodd" clipRule="evenodd" d="M460.014 3.81307C420.641 11.7579 378.77 33.2781 351.654 59.505C303.705 105.881 279.556 161.104 279.938 223.508C280.097 249.754 281.311 259.43 287.263 281.961C309.982 367.962 382.355 432.786 471.684 447.145C489.338 449.982 535.515 448.467 550.461 444.562C611.37 428.639 652.221 402.097 686.068 356.453C713.192 319.873 727.501 277.136 728.586 229.449C729.457 191.244 722.92 161.162 705.988 125.472C681.703 74.2861 630.173 29.013 575.553 10.8769C541.762 -0.343167 494.827 -3.21187 460.014 3.81307ZM537.818 35.3105C545.306 36.4425 559.449 40.2195 569.247 43.7047C666.197 78.1934 718.287 183.879 687.157 282.934C668.663 341.786 622.187 388.277 562.931 407.197C538.913 414.867 523.366 416.801 495.154 415.624C444.815 413.525 402.242 394.471 367.475 358.479C343.068 333.213 327.451 306.555 319.11 275.923C294.158 184.283 338.548 89.3007 424.99 49.3682C459.514 33.4182 495.564 28.9274 537.818 35.3105ZM503.214 89.4174C502.598 91.0219 495.321 113.106 487.043 138.495L471.992 184.653L421.699 185.172L371.408 185.689L394.316 202.141C406.914 211.189 425.227 224.474 435.011 231.667L452.801 244.742L437.429 291.863C428.974 317.778 422.417 339.345 422.86 339.787C423.302 340.228 441.782 327.412 463.927 311.304L504.195 282.018L512.965 288.311C517.789 291.771 536.297 305.238 554.091 318.236C571.886 331.233 586.63 341.695 586.858 341.485C587.085 341.275 580.243 319.397 571.651 292.864C563.059 266.332 556.31 244.363 556.65 244.044C559.356 241.502 633.677 187.992 635.559 187.23C642.568 184.392 633.542 183.744 587.054 183.744H536.116L520.224 135.122C511.485 108.38 503.829 87.8128 503.214 89.4174ZM13.6119 526.51C1.46273 532.623 0.00195349 538.475 8.38447e-06 581.05C-0.00388183 623.212 1.34213 629.346 12.0363 635.906C17.9417 639.531 21.2075 639.815 51.5414 639.352L84.6082 638.849L85.1937 628.688L85.7811 618.53L56.0171 617.992L26.255 617.455V581.474V545.494H55.4316H84.6082V534.797V524.1L52.514 523.593C25.0685 523.157 19.4336 523.581 13.6119 526.51ZM136.745 526.932C124.975 534.109 124.605 535.725 124.405 580.901C124.144 640.064 123.948 639.821 172.103 639.821C222.417 639.821 222.388 639.856 221.892 580.605C221.516 535.692 221.135 534.04 209.476 526.932C204.02 523.606 199.57 523.141 173.111 523.141C146.651 523.141 142.201 523.606 136.745 526.932ZM261.521 525.584C261.002 526.934 260.811 552.972 261.095 583.445L261.613 638.849H273.283H284.954L285.475 592.739L285.997 546.63L292.283 545.628C295.742 545.078 302.071 544.963 306.35 545.371C310.629 545.782 316.959 546.196 320.417 546.291L326.704 546.466L327.225 592.657L327.746 638.849L338.662 639.424L349.576 640L350.652 633.372C351.245 629.727 351.533 607.151 351.294 583.201C350.683 522.192 351.533 523.128 296.755 523.128C270.93 523.128 262.231 523.734 261.521 525.584ZM382.865 524.094C381.678 525.281 384.765 536.31 399.746 584.392C404.745 600.437 410.207 618.379 411.884 624.262C416.41 640.15 416.214 640.031 437.252 639.401L455.721 638.849L463.96 613.565C479.109 567.08 492.108 525.911 492.108 524.423C492.108 523.612 486.199 523.209 478.978 523.524L465.849 524.1L461.622 536.742C459.298 543.695 453.768 561.636 449.333 576.612C438.851 612.003 437.135 616.774 435.523 615.022C434.132 613.514 426.108 587.624 417.587 557.163C414.895 547.536 411.522 536.158 410.092 531.88L407.494 524.1L395.743 523.532C389.282 523.219 383.485 523.472 382.865 524.094ZM537.658 524.987C535.433 525.901 531.274 529.425 528.419 532.817L523.23 538.984V580.747C523.23 640.529 522.648 639.821 571.76 639.821H602.979V629.124V618.427H574.678H546.376L546.96 607.244L547.543 596.061L570.885 595.585C603.848 594.91 602.979 595.266 602.979 582.462V571.857L575.261 571.316L547.543 570.777L546.96 559.571C546.549 551.71 547.131 548.088 548.905 547.443C550.296 546.935 562.812 546.219 576.72 545.852L602.006 545.185V534.643V524.1L571.857 523.713C555.275 523.499 539.885 524.073 537.658 524.987ZM649.339 533.227C648.946 538.905 648.638 564.991 648.656 591.199L648.689 638.849H660.359H672.03L673.003 617.455L673.975 596.061H685.504H697.031L706.704 617.941L716.378 639.821H728.73C735.522 639.821 741.081 638.961 741.081 637.911C741.081 636.861 737.413 628.329 732.931 618.948C728.448 609.57 724.103 600.371 723.274 598.508C722.126 595.927 723.163 594.396 727.619 592.092C738.084 586.681 741.066 579.043 741.074 557.62C741.081 538.708 741.054 538.599 734.427 531.364L727.773 524.1L688.912 523.503L650.052 522.904L649.339 533.227ZM794.473 526.144C784.329 531.15 780.96 539.245 781.154 558.136C781.341 576.342 784.267 584.571 792.459 589.938C796.322 592.469 802.3 593.144 820.856 593.144H844.357L843.779 605.299L843.199 617.455L811.792 617.988L780.382 618.523L779.684 625.843C778.278 640.601 776.296 639.821 815.235 639.821C855.566 639.821 859.781 638.646 865.531 625.808C870.25 615.267 869.982 590.392 865.066 582.892C859.49 574.383 854.397 572.785 829.584 571.75L806.242 570.777L805.645 560.289C805.317 554.52 805.859 548.989 806.853 547.995C807.847 547.001 816.869 546.229 826.901 546.28C836.936 546.33 848.865 545.856 853.411 545.226L861.678 544.08V533.603V523.128L831.042 523.172C807.752 523.205 798.983 523.919 794.473 526.144ZM923.056 526.901C912.776 533.727 911.902 537.677 911.263 580.28C910.603 624.159 911.638 629.354 922.346 635.881C928.105 639.391 932.12 639.807 960.392 639.813L992 639.821V629.177V618.534L964.282 617.994L936.564 617.455V606.758V596.061L963.796 595.089L991.027 594.116V583.419V572.722L963.796 571.75L936.564 570.777L935.987 558.676L935.409 546.573L963.218 546.035L991.027 545.494V534.797V524.1L959.906 523.6C931.78 523.147 928.234 523.466 923.056 526.901ZM197.953 581.045L198.481 618.54L172.667 617.997L146.852 617.455L146.319 582.513C146.025 563.294 146.227 546.42 146.766 545.015C147.521 543.049 153.473 542.586 172.585 543.004L197.424 543.549L197.953 581.045ZM717.74 558.136V571.75H695.371H673.003V559.433C673.003 552.657 673.586 546.531 674.3 545.819C675.012 545.105 685.078 544.521 696.669 544.521H717.74V558.136Z" fill="black"/>
</svg>
