<svg width="941" height="342" viewBox="0 0 941 342" fill="none" xmlns="http://www.w3.org/2000/svg">
<path fill-rule="evenodd" clip-rule="evenodd" d="M7 16V32H10.277C12.08 32 14.555 32.701 15.777 33.557L18 35.113V78.934C18 127.649 18.434 124.73 11.039 125.722L7 126.263V141.632V157L61.25 156.985C105.581 156.973 116.646 156.7 121.769 155.492C133.118 152.817 141.653 147.183 145.779 139.644C147.339 136.795 147.526 131.265 147.782 80.643L148.065 24.786L145.527 20.455C140.72 12.254 129.871 5.416 116.192 1.969C109.088 0.179 104.622 0.03 57.75 0.015L7 0V16ZM93.824 35.675C95.296 36.75 97.39 39.4 98.477 41.565C100.325 45.244 100.455 47.65 100.477 78.5C100.503 115.145 100.15 117.718 94.647 121.074C91.98 122.7 89.556 122.993 78.75 122.996L66 123V78.667C66 54.283 66.338 33.983 66.75 33.554C67.162 33.126 72.821 32.988 79.324 33.248C88.982 33.633 91.638 34.078 93.824 35.675ZM840.536 97.797C818.349 113.472 804.736 123.742 803.286 125.898C801.616 128.38 801 130.732 801 134.623C801 139.524 801.515 140.71 807.426 149.429C825.224 175.679 828.453 178.569 839.116 177.798C844.22 177.429 845.881 176.692 853.454 171.44C879.671 153.257 880.09 153 883.512 153C886.27 153 887.408 153.696 889.644 156.75C891.154 158.813 892.72 160.895 893.124 161.379C894.273 162.755 927.178 139.124 926.26 137.582C925.842 136.879 922.846 132.644 919.602 128.17C913.087 119.185 908.3 115.984 901.434 116.022C895.883 116.053 891.551 118.283 874.586 129.84C858.232 140.981 855.96 141.721 851.84 137.25C844.159 128.912 844.042 125.592 851.259 120.622C856.888 116.745 860.018 116.223 864 118.5C865.375 119.286 866.96 119.945 867.523 119.965C869.586 120.036 894.499 101.302 894.379 99.768C894.251 98.12 877.005 72.967 876.058 73.047C875.751 73.073 859.766 84.211 840.536 97.797ZM204 86.591C201.525 88.002 198.713 89.867 197.75 90.734C196.12 92.202 196 92.094 196 89.155V86H181H166V94.5C166 102.333 166.157 103 168 103C169.928 103 170 103.667 170 121.5C170 139.333 169.928 140 168 140C166.157 140 166 140.667 166 148.5V157H184.5H203V148.5V140H200H197V123.468C197 105.817 198.009 100.767 201.777 99.571C205.518 98.383 208.837 100.58 209.534 104.705C210.819 112.313 210.432 112 218.567 112H226V101.434C226 95.623 225.537 90.003 224.97 88.945C222.098 83.578 211.389 82.376 204 86.591ZM217 148.5V157H226.5H236V148.5V140H226.5H217V148.5ZM749.792 142.354C740.139 145.051 733.351 151.703 727.516 164.184L724.096 171.5L722.396 167.25C721.461 164.912 720.116 163 719.406 163C717.87 163 672.85 179.055 671.718 180.007C670.934 180.666 679.456 205.404 681.275 207.75C681.809 208.438 683.987 209 686.116 209C689.487 209 690.364 209.52 692.902 213.023C696.762 218.352 705.226 241.303 705.38 246.859C705.484 250.626 705.058 251.587 702.25 253.932C699.015 256.633 698.235 258.409 699.846 259.405C700.517 259.819 740.975 245.768 753.25 240.857C756.58 239.525 756.817 237.263 753.75 236.09C749.728 234.552 747.977 231.46 742.446 216.12C736.865 200.644 735.875 194.563 738.13 189.615C739.818 185.91 744.066 184.466 747.72 186.355C749.329 187.187 751.16 188.488 751.789 189.246C752.418 190.003 756.502 200.412 760.864 212.376C765.226 224.34 768.965 234.299 769.173 234.507C769.381 234.714 780.245 231.005 793.314 226.263C811.653 219.61 817.009 217.284 816.775 216.071C816.552 214.914 815.219 214.488 811.716 214.453C808.378 214.419 806.38 213.823 805.011 212.453C803.889 211.329 799.421 199.511 794.491 184.623C789.212 168.681 784.818 157.143 783.048 154.569C776.258 144.701 761.194 139.168 749.792 142.354ZM912.943 155.449C899.65 164.745 896.365 167.511 895.737 169.935C894.688 173.983 886.767 179.499 882 179.502C879.165 179.503 875.525 181.589 862.833 190.488L847.167 201.473L848.767 204.183C849.708 205.776 850.849 206.606 851.534 206.197C852.175 205.813 870.973 192.676 893.308 177.002C931.162 150.437 933.828 148.373 932.622 146.557C931.911 145.486 930.889 144.463 930.351 144.284C929.814 144.105 921.98 149.129 912.943 155.449ZM896.031 181.607C873.773 197.244 855.193 210.407 854.741 210.859C854.29 211.31 854.763 212.721 855.794 213.994L857.668 216.308L893.084 191.478C944.122 155.694 940.673 158.528 937.75 154.78C936.652 153.373 931.568 156.642 896.031 181.607ZM899.768 193.318C878.465 208.268 861.028 220.993 861.018 221.595C861.008 222.197 861.788 223.399 862.75 224.266C864.373 225.728 866.681 224.32 894.5 204.901C933.306 177.813 933.51 177.659 937.017 172.818C939.871 168.878 940.848 165.924 939.25 166.068C938.837 166.105 921.071 178.367 899.768 193.318ZM491.5 174.329C479.4 175.361 469.352 176.344 469.172 176.514C468.992 176.683 469.486 183.95 470.271 192.661C471.863 210.338 471.283 214.003 466.552 216.158C464.506 217.091 464 218.032 464.001 220.911C464.003 228.113 466.104 246.42 467.061 247.574C467.602 248.226 469.368 249.024 470.986 249.347C475.37 250.224 477.683 255.633 478.948 267.965C480.682 284.859 480.412 289.357 477.451 292.876C476.048 294.543 473.348 296.468 471.451 297.154C467.784 298.48 466.536 302 469.732 302C472.622 302 530.271 296.998 533.649 296.454C536.191 296.045 536.699 295.566 536.283 293.974C535.934 292.641 534.912 291.999 533.133 291.996C529.255 291.991 524.065 288.416 522.58 284.728C520.462 279.467 518.65 256.015 519.98 251.076C520.985 247.34 524.188 244.128 528.292 242.74C528.728 242.592 528.601 237.078 528.009 230.486C526.416 212.73 526.27 212.106 523.551 211.423C522.252 211.097 520.214 209.792 519.022 208.523C517.136 206.515 516.665 204.093 515.395 189.858C514.592 180.861 513.838 173.264 513.718 172.977C513.598 172.689 503.6 173.297 491.5 174.329ZM857.543 183.092C841.18 194.724 841.849 194.138 842.932 195.89C843.584 196.945 847.375 194.746 859.313 186.39C871.109 178.134 874.594 175.216 873.8 174.259C873.225 173.567 872.473 173.038 872.128 173.085C871.782 173.131 865.219 177.634 857.543 183.092ZM0 239.5V302H38.5C72.056 302 77 301.807 77 300.5C77 299.531 76.026 298.999 74.25 298.996C70.803 298.992 65.516 295.833 63.9 292.813C62.299 289.822 61.306 270.592 62.78 271.12C63.363 271.329 69.614 276.555 76.67 282.734C83.727 288.912 89.95 293.934 90.5 293.892C91.05 293.851 97 289.134 103.723 283.409C110.445 277.684 116.183 273 116.473 273C116.763 273 117 277.655 117 283.345C117 294.751 116.472 295.894 110.185 298.085C108.433 298.696 107 299.827 107 300.598C107 301.777 113.209 302 146 302C180 302 185 301.808 185 300.5C185 299.345 183.711 299 179.401 299C172.674 299 168.013 296.985 165.706 293.08C164.183 290.501 164 286.331 164 254.231C164 220.205 164.104 218.138 165.932 215.814C168.219 212.906 173.934 211 180.366 211H185V194V177H148.622C120.712 177 112.016 177.291 111.26 178.25C110.719 178.938 105.212 190.3 99.023 203.5C92.834 216.7 87.641 227.643 87.484 227.819C87.326 227.994 80.785 217.419 72.949 204.319C65.113 191.218 58.024 179.713 57.196 178.75C55.829 177.161 53.124 177 27.845 177H0V239.5ZM596 192.018C567.679 199.603 551.647 219.076 555.989 240.617C556.952 245.394 568.665 290.764 570.61 297.25C570.907 298.239 572.084 298.985 573.317 298.965C575.719 298.927 606.72 290.614 607.548 289.785C607.832 289.502 606.685 284.198 605 278C603.315 271.802 602.13 266.537 602.368 266.299C602.605 266.062 616.232 262.258 632.65 257.846C649.067 253.433 662.599 249.726 662.721 249.608C663.357 248.985 653.464 214.744 651.367 210.311C648.158 203.527 639.67 195.796 632.247 192.896C623.93 189.646 606.437 189.223 596 192.018ZM409.966 211.704C406.981 213.192 401.717 217.272 398.269 220.771L392 227.134V222.067V217H365.5H339L339.015 231.75C339.024 239.863 339.361 246.995 339.765 247.6C340.169 248.205 341.85 249.138 343.5 249.674C348.593 251.327 349.467 254.571 349.783 273C350.11 292.054 349.129 295.726 343.25 297.457C341.147 298.076 340 299.047 340 300.207C340 301.894 341.916 302 372.5 302C404.333 302 405 301.959 405 300C405 298.546 404.333 298 402.556 298C401.211 298 398.849 296.915 397.306 295.589C394.503 293.18 394.5 293.164 394.176 278.602C393.989 270.157 394.335 261.703 394.999 258.503C396.442 251.553 400.059 247 404.137 247C408.906 247 411.531 250.83 414.118 261.561L416.394 271H432.775H449.156L448.826 252.25C448.503 233.933 448.431 233.377 445.685 228.16C439.679 216.747 429.294 209 420 209C416.997 209 413.503 209.942 409.966 211.704ZM233.972 218.359C222.051 220.927 214.538 228.118 207.124 244.057C201.125 256.954 199.654 265.302 200.287 282.843C200.578 290.904 201.135 298.512 201.525 299.75L202.233 302H261.617C313.735 302 321 301.816 321 300.5C321 299.616 320.077 298.994 318.75 298.985C312.235 298.94 312 297.5 312 257.566V222H294H276V226.712V231.425L271.25 226.82C265.18 220.935 261.723 219.241 253.308 218.024C244.776 216.79 240.943 216.857 233.972 218.359ZM612.214 218.954C614.408 220.68 620.911 235.513 619.869 236.415C619.666 236.591 614.775 237.947 609 239.429C603.225 240.911 597.786 242.328 596.913 242.578C595.689 242.927 595.037 241.741 594.066 237.404C591.68 226.745 594.32 220.347 602 218.172C607.348 216.657 609.504 216.822 612.214 218.954ZM806 227.377C799.675 229.723 789.248 233.559 782.83 235.901L771.16 240.16L772.178 243.08C772.738 244.686 773.283 246 773.39 246C773.898 246 820.463 228.87 820.759 228.574C821.532 227.801 819.692 223.004 818.642 223.055C818.014 223.086 812.325 225.03 806 227.377ZM798.339 242.688L775.177 251.211L776.187 254.105C776.742 255.697 777.336 257 777.507 257C778.166 257 824.308 240.025 824.692 239.642C825.518 238.816 823.743 234.003 822.642 234.083C822.014 234.128 811.077 238.001 798.339 242.688ZM730 254.967C706.816 263.501 703.458 265.004 703.165 266.976C702.981 268.216 703.235 269.635 703.729 270.129C704.765 271.165 759.256 251.732 759.788 250.137C760.207 248.879 758.202 244.959 757.215 245.106C756.822 245.165 744.575 249.602 730 254.967ZM802.346 253.738L779.192 262.251L780.194 265.126C780.745 266.707 781.336 268 781.507 268C782.166 268 828.308 251.025 828.692 250.642C829.522 249.811 827.74 245.004 826.642 245.112C826.014 245.174 815.081 249.055 802.346 253.738ZM267.71 253.965C280.074 261.504 280.968 286.821 269.187 295.806C264.527 299.361 257.003 299.572 252.385 296.278C247.411 292.73 244.5 285.034 244.5 275.429C244.5 268.422 244.895 266.591 247.5 261.536C252.14 252.531 260.328 249.463 267.71 253.965ZM733.735 266.216C708.05 275.572 706.017 276.486 706.597 278.415C706.942 279.562 707.567 280.87 707.984 281.322C708.666 282.06 761.358 263.632 763.305 261.975C764.195 261.218 763.164 255.97 762.142 256.051C761.789 256.079 749.006 260.653 733.735 266.216ZM649.5 265.619C640.7 267.973 632.537 270.143 631.36 270.441C629.254 270.974 629.244 271.082 630.733 276.992C631.565 280.296 632.727 283 633.315 283C634.643 283 668.354 273.923 668.888 273.422C669.312 273.023 667.066 264.162 666.1 262.419C665.699 261.696 660.201 262.756 649.5 265.619ZM737.755 277.279C712.441 286.563 710.063 287.632 710.617 289.478C710.951 290.59 711.575 291.879 712.004 292.341C712.713 293.107 765.427 274.676 767.305 273.006C768.193 272.216 767.167 266.969 766.142 267.052C765.789 267.08 753.015 271.683 737.755 277.279ZM652 283.949C644.575 285.996 637.351 287.957 635.948 288.305C634.482 288.669 632.255 290.68 630.716 293.031C628.565 296.317 628.378 297.019 629.768 296.596C630.721 296.306 639.703 293.836 649.728 291.107C659.753 288.378 668.416 285.861 668.978 285.514C669.54 285.166 670 283.784 670 282.441C670 279.224 668.761 279.327 652 283.949ZM628 302.52C606.825 308.234 587.582 313.44 585.238 314.088C581.723 315.06 581.183 315.516 582.156 316.688C585.3 320.476 586.039 320.36 624.77 310C645.522 304.45 663.292 299.672 664.261 299.383C665.76 298.936 669 294.265 669 292.55C669 291.522 666.502 292.129 628 302.52ZM592.333 299.87C582.891 302.416 574.867 304.799 574.502 305.164C573.474 306.192 575.887 310 577.566 310C579.017 310 617.205 300.044 617.793 299.512C618.093 299.241 610.117 294.902 609.719 295.12C609.599 295.186 601.775 297.323 592.333 299.87ZM501 305.065C484.225 306.624 470.163 307.922 469.75 307.95C469.337 307.977 469 309.382 469 311.072V314.144L474.25 313.553C477.137 313.229 492.519 311.84 508.431 310.467C524.343 309.094 537.466 307.865 537.593 307.736C537.72 307.606 537.586 306.262 537.295 304.75C536.66 301.446 540.267 301.415 501 305.065ZM627.791 314.747C610.352 319.465 596.291 323.661 596.545 324.073C597.434 325.511 611.368 327.232 616.915 326.589C629.617 325.116 641.41 322.153 643 320.034C643.275 319.668 645.975 317.938 649 316.189C656.06 312.109 663.127 305.761 660.25 306.084C659.837 306.131 645.231 310.029 627.791 314.747ZM0 311V314H38.5H77V311V308H38.5H0V311ZM107 311V314H146H185V311V308H146H107V311ZM205.15 311L206.196 314H263.598H321V311V308H262.552H204.104L205.15 311ZM340 311V314H372.5H405V311V308H372.5H340V311ZM499.5 317.025C483.55 318.546 470.387 319.837 470.25 319.895C470.113 319.953 470 321.386 470 323.079C470 325.901 470.231 326.114 472.75 325.629C474.262 325.338 489.806 323.874 507.29 322.376C533.46 320.134 538.985 319.404 538.54 318.245C538.243 317.47 538 316.198 538 315.418C538 313.525 534.823 313.658 499.5 317.025ZM0 323V326H38.5H77V323V320H38.5H0V323ZM107 323V326H146H185V323V320H146H107V323ZM210 320.777C210 321.205 210.701 322.555 211.557 323.777L213.113 326H267.057H321V323V320H265.5C234.975 320 210 320.35 210 320.777ZM340 323V326H372.5H405V323V320H372.5H340V323ZM531 326.157C526.875 326.519 511.688 327.83 497.25 329.071L471 331.327V334.163C471 336.783 471.287 336.996 474.75 336.951C481.048 336.87 538.854 331.48 539.412 330.922C539.699 330.634 539.611 329.297 539.217 327.95C538.515 325.551 538.344 325.514 531 326.157ZM0 335V338H38.5H77V335V332H38.5H0V335ZM107 335V338H146H185V335V332H146H107V335ZM219.86 333.332C224.163 338.517 238.96 342.666 249.602 341.673C256.531 341.026 266.737 337.053 269.602 333.887C271.272 332.042 270.723 332 245.033 332C223.264 332 218.945 332.229 219.86 333.332ZM276 335V338H298.5H321V335V332H298.5H276V335ZM340 335V338H372.5H405V335V332H372.5H340V335Z" fill="black"/>
</svg>
