<svg width="1151" height="569" viewBox="0 0 1151 569" fill="none" xmlns="http://www.w3.org/2000/svg">
<path fill-rule="evenodd" clip-rule="evenodd" d="M1.24446e-06 0.911361C0.0102045 1.41297 0.359302 3.29913 0.776178 5.10362C1.19233 6.90812 2.63317 13.634 3.97636 20.0499C5.98057 29.6185 20.2542 97.2058 31.7307 151.468C33.1089 157.984 35.3638 168.647 36.742 175.164C38.1209 181.68 45.352 215.883 52.8121 251.171C60.2729 286.459 67.488 320.58 68.8473 326.996C76.2636 362.011 93.7563 444.776 96.1993 456.41C97.7575 463.828 100.011 474.491 101.208 480.105C102.404 485.719 104.881 497.34 106.711 505.93C108.541 514.52 110.176 521.686 110.345 521.854C110.513 522.023 116.194 519.363 122.969 515.943C176.861 488.74 227.917 474.094 291.378 467.634C306.533 466.091 348.28 465.491 366.187 466.557C420.468 469.79 475.234 481.279 527.91 500.482C544.099 506.384 572.083 518.443 574.772 520.676C575.466 521.251 577.95 520.457 584.288 517.631C612.721 504.954 651.597 491.637 683.99 483.478C708.246 477.368 742.5 471.615 769.965 469.037C787.312 467.409 837.012 467.186 853.413 468.662C877.66 470.845 899.093 474.191 920.017 479.06C961.562 488.727 1002.57 504.985 1029.68 522.532C1033.04 524.703 1035.88 526.379 1035.99 526.258C1036.11 526.137 1036.55 524.233 1036.97 522.028C1037.39 519.822 1040.87 503.746 1044.7 486.302C1048.54 468.859 1053.29 447.205 1055.27 438.182C1057.25 429.16 1061.03 411.935 1063.68 399.905C1066.32 387.875 1070.61 368.354 1073.2 356.525C1075.8 344.695 1080.56 323.041 1083.77 308.405C1091.33 273.993 1093.26 265.201 1102.01 225.288C1111.95 179.978 1113.62 172.346 1118.33 150.921C1120.57 140.696 1123.53 127.244 1124.89 121.029C1127.78 107.833 1135.09 74.5887 1140.91 48.1199C1143.15 37.8944 1146.41 23.1303 1148.14 15.3109C1149.87 7.49139 1151.15 0.847201 1150.99 0.546817C1150.82 0.246432 891.773 0 575.331 0C115.529 0 -0.013846 0.183001 1.24446e-06 0.911361ZM839.565 138.797V159.483L828.451 173.019L817.337 186.554L812.782 186.601C810.277 186.626 808.227 186.339 808.227 185.964C808.227 185.587 810.359 179.132 812.964 171.617C815.569 164.103 817.701 157.848 817.701 157.719C817.701 157.589 813.11 157.483 807.498 157.483H797.295V137.798V118.112H818.43H839.565V138.797ZM422.55 142.927C466.233 148.407 495.796 176.702 501.747 218.727C502.882 226.742 503.157 236.143 502.391 240.777L501.939 243.508L440.268 243.694L378.597 243.88L378.833 248.255C379.581 262.132 386.248 273.67 396.474 278.788C403.442 282.276 408.31 283.156 417.952 282.676C434.683 281.842 445.155 275.821 448.337 265.206L449.157 262.472H476.007C500.017 262.472 502.858 262.595 502.858 263.626C502.858 266.833 499.454 277.515 496.372 283.98C487.737 302.097 471.92 314.387 450.003 320.007C435.893 323.625 431.396 324.077 409.571 324.07C390.655 324.064 388.018 323.909 380.054 322.33C342.867 314.96 319.509 294.707 310.813 262.29C308.074 252.085 307.287 243.398 307.765 228.664C308.345 210.756 310.647 200.891 317.4 187.376C329.606 162.948 354.312 147.009 386.249 142.958C393.211 142.075 415.604 142.056 422.55 142.927ZM944.878 142.908C981.95 146.251 1007.89 165.224 1010.58 190.964L1011.04 195.396H986.187H961.332L960.527 192.406C957.753 182.102 939.621 176.059 922.419 179.705C913.606 181.573 908.51 185.586 908.51 190.657C908.51 195.468 912.901 199.396 921.014 201.843C925.745 203.27 929.751 204.051 953.623 208.199C971.642 211.331 983.712 215.07 993.708 220.618C998.513 223.285 1008.53 233.424 1011.05 238.175C1016.16 247.8 1017.73 264.689 1014.6 276.43C1007.76 302.159 985.052 317.1 945.971 321.597C934.672 322.897 911.628 322.714 901.321 321.242C873.254 317.232 854.425 305.395 846.625 286.853C844.416 281.606 842.481 272.614 842.481 267.606V263.93H869.432H896.384L896.72 265.571C896.905 266.473 897.246 268.394 897.477 269.84C898.448 275.924 905.124 282.467 912.638 284.699C924.424 288.2 940.433 285.811 944.707 279.912C946.891 276.899 947.622 272.367 946.399 269.437C944.218 264.217 937.826 261.786 915.586 257.719C893.507 253.681 884.022 251.257 874.632 247.251C853.373 238.182 843.016 221.694 844.143 198.715C844.784 185.654 848.721 176.238 857.346 167.133C865.532 158.492 875.393 152.735 889.853 148.156C905.117 143.322 926.672 141.266 944.878 142.908ZM560.601 148.552C561.216 150.056 567.052 162.933 573.571 177.169C580.09 191.404 589.757 212.566 595.055 224.195C600.353 235.824 605.07 245.338 605.538 245.338C606.307 245.338 612.008 233.125 642.211 166.779L651.753 145.818H678.245C694.815 145.818 704.737 146.082 704.737 146.523C704.737 146.911 698.301 160.772 690.436 177.327C682.57 193.882 670.137 220.057 662.807 235.496C655.477 250.934 643.556 276.033 636.314 291.271L623.149 318.976L596.486 319.167L569.823 319.359L556.66 292.556C549.42 277.814 539.154 256.894 533.845 246.068C528.536 235.241 515.457 208.574 504.78 186.809C494.103 165.043 485.366 146.917 485.366 146.526C485.366 146.077 498.912 145.818 522.425 145.818H559.484L560.601 148.552ZM779.803 232.215V318.612H747.372H714.94V232.215V145.818H747.372H779.803V232.215ZM206.234 211.071V274.867H255.064H303.894V296.739V318.612H222.632H141.371V233.43C141.371 186.58 141.589 148.029 141.857 147.762C142.123 147.495 156.718 147.276 174.289 147.276H206.234V211.071ZM400.925 179.397C389.83 181.629 382.463 191.982 381.372 206.879L380.931 212.894H405.454H429.977L429.965 209.066C429.949 204.256 428.313 196.422 426.44 192.186C424.431 187.643 419.635 182.701 415.567 180.981C411.366 179.205 405.198 178.538 400.925 179.397ZM976.06 514.294C951.728 522.233 949.619 555.859 972.773 566.704C977.065 568.714 978.444 569 983.869 569C989.273 569 990.679 568.711 994.89 566.739C997.545 565.495 1001.07 563.258 1002.72 561.766C1006.4 558.434 1009.85 551.61 1010.92 545.541C1013 533.695 1006.45 520.895 995.675 515.736C990.666 513.338 981.138 512.638 976.06 514.294ZM993.714 520.177C998.685 522.61 1003.8 528.227 1005.38 533C1006.7 536.985 1006.9 544.336 1005.78 548.154C1003.89 554.614 999.007 559.942 992.219 562.945C987.583 564.997 979.199 564.674 974.252 562.253C969.894 560.12 965.548 555.777 963.355 551.363C960.984 546.589 960.909 536.426 963.208 531.417C966.17 524.964 972.034 520.109 979.046 518.302C983.001 517.284 989.5 518.114 993.714 520.177ZM972.208 541.587V556.772L974.394 556.45L976.581 556.129V550.015V543.9H979.033C982.331 543.9 984.722 545.943 988.172 551.704C990.831 556.146 991.246 556.517 993.654 556.585C995.087 556.626 996.259 556.403 996.259 556.089C996.258 555.048 989.579 545.357 988.193 544.386C986.928 543.499 987.032 543.342 989.649 542.187C994.684 539.965 996.223 533.361 992.61 529.482C990.559 527.28 986.7 526.411 978.949 526.407L972.208 526.402V541.587ZM988.241 532.235C989.043 533.037 989.699 534.349 989.699 535.151C989.699 538.162 987.199 539.526 981.682 539.526H976.581V535.151V530.777H981.682C985.812 530.777 987.062 531.055 988.241 532.235Z" fill="black"/>
</svg>
