<svg width="773" height="285" viewBox="0 0 773 285" fill="none" xmlns="http://www.w3.org/2000/svg">
<path fill-rule="evenodd" clip-rule="evenodd" d="M1.36597 4.26095C2.1178 6.6037 5.95736 20.0265 9.89749 34.0876C13.8392 48.1488 19.7254 69.0662 22.9786 80.5707C26.2303 92.0753 38.4467 135.305 50.1232 176.636C61.7997 217.967 73.2334 258.407 75.5291 266.503L79.7028 281.223L116.844 281.637L153.983 282.052L158.818 264.593C161.475 254.991 171.08 219.594 180.163 185.932C189.245 152.271 201.034 108.693 206.362 89.0926L216.051 53.4556L445.794 53.0636L675.538 52.67L698.905 27.1911C711.757 13.178 722.272 1.32477 722.272 0.852195C722.272 0.379617 594.765 0.16733 438.922 0.382702L155.572 0.774719L152.888 10.8461C151.412 16.3853 142.743 51.4769 133.621 88.8292C124.5 126.18 116.553 156.162 115.962 155.455C115.371 154.747 113.385 147.545 111.547 139.449C109.709 131.354 104.66 109.042 100.325 89.8673C95.9923 70.6931 90.3877 45.9408 87.8738 34.8623C85.3585 23.7839 82.5523 11.4085 81.6365 7.35983L79.9735 0H39.986H0L1.36597 4.26095ZM620.096 74.3714C597.418 77.9692 576.65 90.7784 568.592 106.136C566.237 110.622 566.151 110.174 566.09 93.3536L566.029 75.9224H535.881H505.736L505.329 132.652L504.923 189.382L492.495 171.001C485.661 160.89 468.338 135.363 454 114.271L427.934 75.9224H397.991H368.048L367.646 147.88L367.243 219.836L349.128 171.509C339.166 144.928 327.015 112.534 322.126 99.5234L313.239 75.8666L278.363 76.2819L243.486 76.6971L230.125 112.334C222.775 131.935 205.835 176.907 192.478 212.273C179.122 247.639 167.823 277.795 167.371 279.286C166.608 281.809 168.813 281.998 198.972 281.998H231.394L233.069 276.187C233.989 272.992 236.219 265.323 238.021 259.143L241.297 247.91H277.535H313.774L317.768 261.468C319.964 268.925 322.408 276.593 323.198 278.511L324.635 281.998H376.473H428.31L428.717 226.078L429.122 170.159L467.023 225.998L504.923 281.836L535.476 281.917L566.029 281.998V267.157V252.318L571.107 259.022C580.536 271.471 598.156 280.612 618.359 283.539C632.064 285.526 664.872 285.476 677.331 283.452C694.215 280.708 709.039 273.519 719.964 262.775C730.726 252.191 735.11 244.65 738.738 230.477C741.609 219.262 740.882 204.781 736.868 193.184C733.441 183.283 720.228 169.137 708.801 163.132C697.686 157.293 675.127 149.857 655.753 145.646C634.561 141.041 626.812 138.188 623.286 133.699C618.984 128.222 619.39 123.332 624.632 117.455C628.708 112.884 630.023 112.404 639.961 111.841C645.939 111.502 653.294 112.041 656.308 113.036C663.297 115.346 670.61 123.67 672.795 131.803C674.465 138.01 674.619 138.123 680.21 137.297C683.349 136.832 694.968 136.044 706.029 135.543C717.09 135.041 727.983 134.282 730.236 133.853L734.332 133.075L732.131 123.623C726.404 99.0369 712.627 84.81 686.692 76.7033C676.818 73.6168 634.248 72.1263 620.096 74.3714ZM289.626 167.431C295.305 185.802 299.95 201.315 299.95 201.906C299.95 202.494 289.925 202.976 277.669 202.976H255.389L258.473 192.518C260.17 186.766 264.975 171.05 269.152 157.595C273.329 144.139 276.746 132.669 276.746 132.107C276.746 127.751 280.793 138.851 289.626 167.431ZM580.516 173.153C591.505 182.804 607.749 189.575 639.509 197.744C651.421 200.809 663.812 204.781 667.044 206.573C673.991 210.423 678.957 217.786 678.957 224.235C678.957 230.305 673.34 238.358 666.606 241.942C660.59 245.144 646.062 245.81 637.279 243.288C627.551 240.493 617.533 228.303 615.609 216.921L614.691 211.498L603.897 211.373C597.958 211.303 587.01 211.664 579.564 212.174L566.029 213.1V184.564V156.028L570.403 162.071C572.81 165.395 577.362 170.381 580.516 173.153ZM749.217 237.016C747.447 237.733 744.14 240.531 741.869 243.234C730.316 256.987 745.016 277.531 761.429 270.57C775.856 264.455 777.042 246.774 763.578 238.551C758.301 235.327 754.41 234.912 749.217 237.016ZM765.706 244.692C777.375 256.379 762.666 274.473 747.922 266.57C735.522 259.923 741.216 240.163 755.532 240.163C759.716 240.163 762.359 241.339 765.706 244.692ZM747.023 254.108C747.023 261.339 747.539 263.404 749.344 263.404C750.633 263.404 751.664 262.027 751.664 260.305C751.664 258.601 752.336 257.207 753.157 257.207C753.977 257.207 755.394 258.601 756.305 260.305C757.216 262.01 758.982 263.404 760.227 263.404C762.911 263.404 763.022 262.64 760.911 258.689C759.798 256.607 759.871 254.859 761.155 252.798C764.354 247.668 761.806 244.811 754.033 244.811H747.023V254.108ZM757.466 250.621C757.845 251.757 756.777 252.558 754.887 252.558C752.987 252.558 751.664 251.557 751.664 250.121C751.664 247.273 756.491 247.69 757.466 250.621Z" fill="black"/>
</svg>
